<svg id="Layer_5" data-name="Layer 5"
    xmlns="http://www.w3.org/2000/svg" viewBox="0 0 1051 405">
    <path d="M211.9,932.5l78.5-405h91.5l78,405H383.4l-14.5-89h-64l-15.5,89ZM312.4,793h48.5L336.4,629.5Z" transform="translate(-211.9 -527.5)"/>
    <path d="M485.4,932.5v-405h105c27.3,0,50.7,3,70.2,9.2s34.5,17.1,45,32.8,15.8,37.3,15.8,65a208.2,208.2,0,0,1-4.3,44.2,84.7,84.7,0,0,1-15,33.5c-7.2,9.5-17.2,17.1-30.2,22.8l56,197.5H643.4L596.9,749h-29V932.5ZM567.9,700h24c13.3,0,23.8-2.2,31.5-6.5a36.4,36.4,0,0,0,16.2-19.8q4.8-13.2,4.8-32.7c0-18.7-3.5-33-10.3-42.8s-19.6-14.7-38.2-14.7h-28Z" transform="translate(-211.9 -527.5)"/>
    <path d="M799.4,932.5V589H736.9V527.5h207V589H882.4V932.5Z" transform="translate(-211.9 -527.5)"/>
    <path d="M1104.7,912.9c-15,8.3-28.4,11.7-40.2,10s-22.3-7-31.5-15.9a143.3,143.3,0,0,1-24.6-33l-41.6-75c-7.9-14.4-13.3-27.8-15.9-40.2s-1.5-24,3.5-34.4,15.1-19.9,30.2-28.2q19.9-11.1,35.7-10.2a46.8,46.8,0,0,1,28.4,11.7c8.5,7.2,16.2,17.2,23.3,29.9l9.3,16.8L1053.2,760l-8.3-15a188.9,188.9,0,0,0-12.7-20.2c-4.1-5.6-8.9-9.1-14.2-10.4s-12.1.2-20.4,4.7-13.5,9.9-15.3,15.6-1.6,12.1.9,19.3a157.4,157.4,0,0,0,11,23.9l46.7,84.3c5.9,10.6,11.5,18.6,16.7,23.8s10.5,8.1,16,8.5,11.6-1.3,18.4-5.1,12.9-9.4,14.4-15,.9-11.7-1.7-18.4a176.1,176.1,0,0,0-10.9-22.8l-8.7-15.7,28.1-15.6,8.7,15.7c7.2,13,11.9,25.3,14.2,36.9s1.2,22.3-3.4,32.1S1118.7,905.1,1104.7,912.9Z" transform="translate(-211.9 -527.5)"/>
    <path d="M1227.8,844.7c-14.4,7.9-27.4,11.5-39,10.6s-22.3-5.4-31.7-13.8S1139,822,1131.3,808l-44.7-80.6c-7.7-14-12.5-27-14.3-39.2s0-23.2,5.5-33.3,15.5-19,29.8-26.9,27.3-11.6,38.7-10.8,21.7,5.1,31,13,17.8,18.8,25.6,32.8l44.8,80.8q11.4,20.7,14.4,39.3c2,12.4.3,23.8-4.9,34.1S1242.1,836.7,1227.8,844.7Zm-13-23.4c7.9-4.3,13-9.2,15.2-14.7s2.4-11.5.6-18.2a102.5,102.5,0,0,0-9.4-21.7l-51.6-93.2c-4.4-7.8-8.8-14.2-13.4-19.1s-9.6-7.8-15.4-8.7-12.5,1-20.4,5.3-13,9.3-15.4,14.6-2.7,11.2-1,17.7a98.9,98.9,0,0,0,9.2,21.5l51.6,93.1a106.5,106.5,0,0,0,13.5,19.5q7,7.6,15.9,9C1200.1,827.4,1207,825.7,1214.8,821.3Z" transform="translate(-211.9 -527.5)"/>
    <circle cx="739.6" cy="383" r="21.5" fill="#ff6347"/>
</svg>
